<svg width="78" height="36" viewBox="0 0 78 36" fill="none" xmlns="http://www.w3.org/2000/svg">
<path d="M0 0H73.3837C75.5547 0 77.0069 2.23455 76.1251 4.21842L70 18L76.1251 31.7816C77.0069 33.7654 75.5547 36 73.3837 36H0V0Z" fill="#ED685C"/>
<path d="M26.99 13.214V19.934L22.552 13.214H20.592V23H22.552V16.294L26.99 23H28.95V13.214H26.99ZM34.2189 16.728C35.2269 16.728 36.0389 17.372 36.0669 18.394H32.3849C32.5389 17.33 33.2809 16.728 34.2189 16.728ZM37.9009 20.564H35.7869C35.5349 21.082 35.0729 21.502 34.2329 21.502C33.2529 21.502 32.4689 20.858 32.3709 19.71H38.0409C38.0829 19.458 38.0969 19.206 38.0969 18.954C38.0969 16.644 36.5149 15.118 34.2749 15.118C31.9789 15.118 30.3829 16.672 30.3829 19.122C30.3829 21.558 32.0209 23.126 34.2749 23.126C36.1929 23.126 37.4809 21.992 37.9009 20.564ZM40.9415 23H43.0695L44.4835 17.582L45.8975 23H48.0115L50.2795 15.244H48.4035L47.0315 21.138L45.5755 15.244H43.5035L42.0195 21.152L40.6475 15.244H38.6595L40.9415 23Z" fill="white"/>
</svg>
