<svg width="18" height="12" viewBox="0 0 18 12" fill="none" xmlns="http://www.w3.org/2000/svg">
<path d="M7 2C6.44772 2 6 1.55228 6 1C6 0.447715 6.44771 0 7 0H17C17.5523 0 18 0.447715 18 1C18 1.55228 17.5523 2 17 2H7Z" fill="#C5D1DB"/>
<path d="M0 6C0 6.55228 0.447716 7 1 7H17C17.5523 7 18 6.55228 18 6C18 5.44772 17.5523 5 17 5H1C0.447715 5 0 5.44772 0 6Z" fill="#C5D1DB"/>
<path d="M6 11C6 11.5523 6.44771 12 7 12H17C17.5523 12 18 11.5523 18 11C18 10.4477 17.5523 10 17 10H7C6.44772 10 6 10.4477 6 11Z" fill="#C5D1DB"/>
</svg>
